<mxfile host="65bd71144e">
    <diagram id="e6mVNfBuUtRUjhpKlot4" name="Page-1">
        <mxGraphModel dx="1294" dy="418" grid="1" gridSize="10" guides="1" tooltips="1" connect="1" arrows="1" fold="1" page="1" pageScale="1" pageWidth="827" pageHeight="1169" math="0" shadow="0">
            <root>
                <mxCell id="0"/>
                <mxCell id="1" parent="0"/>
                <mxCell id="83" value="" style="rounded=0;whiteSpace=wrap;html=1;" vertex="1" parent="1">
                    <mxGeometry x="290" y="690" width="531" height="120" as="geometry"/>
                </mxCell>
                <mxCell id="47" style="edgeStyle=none;html=1;" edge="1" parent="1" source="3" target="32">
                    <mxGeometry relative="1" as="geometry"/>
                </mxCell>
                <mxCell id="3" value="FRONTEND" style="whiteSpace=wrap;html=1;align=center;rounded=1;" parent="1" vertex="1">
                    <mxGeometry x="264" y="30" width="300" height="60" as="geometry"/>
                </mxCell>
                <mxCell id="53" style="edgeStyle=none;html=1;entryX=0.5;entryY=0;entryDx=0;entryDy=0;" edge="1" parent="1" source="10" target="16">
                    <mxGeometry relative="1" as="geometry"/>
                </mxCell>
                <mxCell id="10" value="DynamoDB" style="shape=cylinder3;whiteSpace=wrap;html=1;boundedLbl=1;backgroundOutline=1;size=15;align=center;rounded=1;" parent="1" vertex="1">
                    <mxGeometry x="130" y="580" width="80" height="70" as="geometry"/>
                </mxCell>
                <mxCell id="52" style="edgeStyle=none;html=1;" edge="1" parent="1" source="11">
                    <mxGeometry relative="1" as="geometry">
                        <mxPoint x="559" y="999" as="targetPoint"/>
                    </mxGeometry>
                </mxCell>
                <mxCell id="11" value="S3" style="shape=cylinder3;whiteSpace=wrap;html=1;boundedLbl=1;backgroundOutline=1;size=15;align=center;rounded=1;" parent="1" vertex="1">
                    <mxGeometry x="519" y="869" width="80" height="70" as="geometry"/>
                </mxCell>
                <mxCell id="16" value="Songs" style="swimlane;fontStyle=1;childLayout=stackLayout;horizontal=1;startSize=26;fillColor=none;horizontalStack=0;resizeParent=1;resizeParentMax=0;resizeLast=0;collapsible=1;marginBottom=0;align=center;rounded=1;arcSize=50;" parent="1" vertex="1">
                    <mxGeometry x="100" y="710" width="140" height="240" as="geometry"/>
                </mxCell>
                <mxCell id="17" value="GUID string" style="text;strokeColor=none;fillColor=none;align=left;verticalAlign=top;spacingLeft=4;spacingRight=4;overflow=hidden;rotatable=0;points=[[0,0.5],[1,0.5]];portConstraint=eastwest;rounded=1;" parent="16" vertex="1">
                    <mxGeometry y="26" width="140" height="26" as="geometry"/>
                </mxCell>
                <mxCell id="18" value="Name string" style="text;strokeColor=none;fillColor=none;align=left;verticalAlign=top;spacingLeft=4;spacingRight=4;overflow=hidden;rotatable=0;points=[[0,0.5],[1,0.5]];portConstraint=eastwest;rounded=1;" parent="16" vertex="1">
                    <mxGeometry y="52" width="140" height="26" as="geometry"/>
                </mxCell>
                <mxCell id="19" value="Description string" style="text;strokeColor=none;fillColor=none;align=left;verticalAlign=top;spacingLeft=4;spacingRight=4;overflow=hidden;rotatable=0;points=[[0,0.5],[1,0.5]];portConstraint=eastwest;rounded=1;" parent="16" vertex="1">
                    <mxGeometry y="78" width="140" height="26" as="geometry"/>
                </mxCell>
                <mxCell id="31" value="Image string" style="text;strokeColor=none;fillColor=none;align=left;verticalAlign=top;spacingLeft=4;spacingRight=4;overflow=hidden;rotatable=0;points=[[0,0.5],[1,0.5]];portConstraint=eastwest;rounded=1;" parent="16" vertex="1">
                    <mxGeometry y="104" width="140" height="26" as="geometry"/>
                </mxCell>
                <mxCell id="20" value="Location string" style="text;strokeColor=none;fillColor=none;align=left;verticalAlign=top;spacingLeft=4;spacingRight=4;overflow=hidden;rotatable=0;points=[[0,0.5],[1,0.5]];portConstraint=eastwest;rounded=1;" parent="16" vertex="1">
                    <mxGeometry y="130" width="140" height="26" as="geometry"/>
                </mxCell>
                <mxCell id="65" value="Subtitle string" style="text;strokeColor=none;fillColor=none;align=left;verticalAlign=top;spacingLeft=4;spacingRight=4;overflow=hidden;rotatable=0;points=[[0,0.5],[1,0.5]];portConstraint=eastwest;rounded=1;" vertex="1" parent="16">
                    <mxGeometry y="156" width="140" height="26" as="geometry"/>
                </mxCell>
                <mxCell id="66" value="ImageStatus string" style="text;strokeColor=none;fillColor=none;align=left;verticalAlign=top;spacingLeft=4;spacingRight=4;overflow=hidden;rotatable=0;points=[[0,0.5],[1,0.5]];portConstraint=eastwest;rounded=1;" vertex="1" parent="16">
                    <mxGeometry y="182" width="140" height="26" as="geometry"/>
                </mxCell>
                <mxCell id="22" value="LocationStatus string" style="text;strokeColor=none;fillColor=none;align=left;verticalAlign=top;spacingLeft=4;spacingRight=4;overflow=hidden;rotatable=0;points=[[0,0.5],[1,0.5]];portConstraint=eastwest;rounded=1;" parent="16" vertex="1">
                    <mxGeometry y="208" width="140" height="32" as="geometry"/>
                </mxCell>
                <mxCell id="26" value="&lt;div style=&quot;text-align: left&quot;&gt;&lt;span&gt;/[songs]/*.png&lt;/span&gt;&lt;/div&gt;&lt;div style=&quot;text-align: left&quot;&gt;&lt;span&gt;/[songs]/*.mp3&lt;/span&gt;&lt;/div&gt;" style="whiteSpace=wrap;html=1;align=center;rounded=1;" parent="1" vertex="1">
                    <mxGeometry x="509" y="999" width="100" height="50" as="geometry"/>
                </mxCell>
                <mxCell id="30" value="&lt;div style=&quot;text-align: center&quot;&gt;&lt;b&gt;Notes:&lt;/b&gt;&lt;/div&gt;&lt;b&gt;- Storage Class:&lt;/b&gt; Glacier Instant Retrieval&lt;br&gt;&lt;b&gt;- S3 Lifecycle Policy: &lt;/b&gt;automatically set assets to glacier" style="text;html=1;strokeColor=none;fillColor=none;align=left;verticalAlign=middle;whiteSpace=wrap;rounded=1;" parent="1" vertex="1">
                    <mxGeometry x="300" y="880" width="190" height="90" as="geometry"/>
                </mxCell>
                <mxCell id="44" style="edgeStyle=none;html=1;entryX=0;entryY=0.5;entryDx=0;entryDy=0;" edge="1" parent="1" source="32" target="41">
                    <mxGeometry relative="1" as="geometry">
                        <Array as="points">
                            <mxPoint x="414" y="240"/>
                        </Array>
                    </mxGeometry>
                </mxCell>
                <mxCell id="45" style="edgeStyle=none;html=1;entryX=0;entryY=0.5;entryDx=0;entryDy=0;" edge="1" parent="1" source="32" target="38">
                    <mxGeometry relative="1" as="geometry">
                        <Array as="points">
                            <mxPoint x="414" y="300"/>
                        </Array>
                    </mxGeometry>
                </mxCell>
                <mxCell id="46" style="edgeStyle=none;html=1;entryX=0;entryY=0.5;entryDx=0;entryDy=0;" edge="1" parent="1" source="32" target="40">
                    <mxGeometry relative="1" as="geometry">
                        <Array as="points">
                            <mxPoint x="414" y="360"/>
                        </Array>
                    </mxGeometry>
                </mxCell>
                <mxCell id="48" style="edgeStyle=none;html=1;entryX=1;entryY=0.5;entryDx=0;entryDy=0;" edge="1" parent="1" source="32" target="33">
                    <mxGeometry relative="1" as="geometry">
                        <Array as="points">
                            <mxPoint x="414" y="240"/>
                        </Array>
                    </mxGeometry>
                </mxCell>
                <mxCell id="49" style="edgeStyle=none;html=1;entryX=1;entryY=0.5;entryDx=0;entryDy=0;" edge="1" parent="1" source="32" target="35">
                    <mxGeometry relative="1" as="geometry">
                        <Array as="points">
                            <mxPoint x="414" y="300"/>
                        </Array>
                    </mxGeometry>
                </mxCell>
                <mxCell id="50" style="edgeStyle=none;html=1;entryX=1;entryY=0.5;entryDx=0;entryDy=0;" edge="1" parent="1" source="32" target="36">
                    <mxGeometry relative="1" as="geometry">
                        <Array as="points">
                            <mxPoint x="414" y="360"/>
                        </Array>
                    </mxGeometry>
                </mxCell>
                <mxCell id="51" style="edgeStyle=none;html=1;entryX=1;entryY=0.5;entryDx=0;entryDy=0;" edge="1" parent="1" source="32" target="37">
                    <mxGeometry relative="1" as="geometry">
                        <Array as="points">
                            <mxPoint x="414" y="420"/>
                        </Array>
                    </mxGeometry>
                </mxCell>
                <mxCell id="62" style="edgeStyle=none;html=1;entryX=0;entryY=0.5;entryDx=0;entryDy=0;" edge="1" parent="1" source="32" target="61">
                    <mxGeometry relative="1" as="geometry">
                        <Array as="points">
                            <mxPoint x="414" y="420"/>
                        </Array>
                    </mxGeometry>
                </mxCell>
                <mxCell id="32" value="API Gateway" style="rounded=0;whiteSpace=wrap;html=1;" vertex="1" parent="1">
                    <mxGeometry x="64" y="140" width="700" height="40" as="geometry"/>
                </mxCell>
                <mxCell id="54" style="edgeStyle=none;html=1;entryX=0.5;entryY=0;entryDx=0;entryDy=0;entryPerimeter=0;" edge="1" parent="1" source="33" target="10">
                    <mxGeometry relative="1" as="geometry">
                        <Array as="points">
                            <mxPoint x="40" y="240"/>
                            <mxPoint x="40" y="520"/>
                            <mxPoint x="170" y="520"/>
                        </Array>
                    </mxGeometry>
                </mxCell>
                <mxCell id="33" value="GET /api/v1/songs" style="rounded=0;whiteSpace=wrap;html=1;" vertex="1" parent="1">
                    <mxGeometry x="154" y="220" width="200" height="40" as="geometry"/>
                </mxCell>
                <mxCell id="55" style="edgeStyle=none;html=1;entryX=0.5;entryY=0;entryDx=0;entryDy=0;entryPerimeter=0;exitX=0;exitY=0.5;exitDx=0;exitDy=0;" edge="1" parent="1" source="35" target="10">
                    <mxGeometry relative="1" as="geometry">
                        <mxPoint x="40" y="300" as="targetPoint"/>
                        <Array as="points">
                            <mxPoint x="40" y="300"/>
                            <mxPoint x="40" y="520"/>
                            <mxPoint x="170" y="520"/>
                        </Array>
                    </mxGeometry>
                </mxCell>
                <mxCell id="35" value="GET /api/v1/songs/:guid" style="rounded=0;whiteSpace=wrap;html=1;" vertex="1" parent="1">
                    <mxGeometry x="154" y="280" width="200" height="40" as="geometry"/>
                </mxCell>
                <mxCell id="56" style="edgeStyle=none;html=1;entryX=0.5;entryY=0;entryDx=0;entryDy=0;entryPerimeter=0;" edge="1" parent="1" source="36" target="10">
                    <mxGeometry relative="1" as="geometry">
                        <Array as="points">
                            <mxPoint x="40" y="360"/>
                            <mxPoint x="40" y="520"/>
                            <mxPoint x="170" y="520"/>
                        </Array>
                    </mxGeometry>
                </mxCell>
                <mxCell id="36" value="POST /api/v1/songs" style="rounded=0;whiteSpace=wrap;html=1;" vertex="1" parent="1">
                    <mxGeometry x="154" y="340" width="200" height="40" as="geometry"/>
                </mxCell>
                <mxCell id="57" style="edgeStyle=none;html=1;entryX=0.5;entryY=0;entryDx=0;entryDy=0;entryPerimeter=0;" edge="1" parent="1" source="37" target="10">
                    <mxGeometry relative="1" as="geometry">
                        <Array as="points">
                            <mxPoint x="40" y="420"/>
                            <mxPoint x="40" y="520"/>
                            <mxPoint x="170" y="520"/>
                        </Array>
                    </mxGeometry>
                </mxCell>
                <mxCell id="37" value="PUT /api/v1/songs/:guid" style="rounded=0;whiteSpace=wrap;html=1;" vertex="1" parent="1">
                    <mxGeometry x="154" y="400" width="200" height="40" as="geometry"/>
                </mxCell>
                <mxCell id="110" style="edgeStyle=none;html=1;entryX=0.5;entryY=0;entryDx=0;entryDy=0;fontSize=14;exitX=1;exitY=0.5;exitDx=0;exitDy=0;" edge="1" parent="1" source="38" target="71">
                    <mxGeometry relative="1" as="geometry">
                        <Array as="points">
                            <mxPoint x="760" y="300"/>
                            <mxPoint x="760" y="480"/>
                            <mxPoint x="556" y="480"/>
                        </Array>
                    </mxGeometry>
                </mxCell>
                <mxCell id="38" value="PUT /api/v1/songs/:guid/image" style="rounded=0;whiteSpace=wrap;html=1;" vertex="1" parent="1">
                    <mxGeometry x="464" y="280" width="200" height="40" as="geometry"/>
                </mxCell>
                <mxCell id="111" style="edgeStyle=none;html=1;fontSize=14;exitX=1;exitY=0.5;exitDx=0;exitDy=0;" edge="1" parent="1" source="40" target="71">
                    <mxGeometry relative="1" as="geometry">
                        <Array as="points">
                            <mxPoint x="760" y="360"/>
                            <mxPoint x="760" y="480"/>
                            <mxPoint x="556" y="480"/>
                        </Array>
                    </mxGeometry>
                </mxCell>
                <mxCell id="40" value="DELETE /api/v1/songs/:guid/image" style="rounded=0;whiteSpace=wrap;html=1;" vertex="1" parent="1">
                    <mxGeometry x="464" y="340" width="200" height="40" as="geometry"/>
                </mxCell>
                <mxCell id="109" style="edgeStyle=none;html=1;fontSize=14;entryX=0.5;entryY=0;entryDx=0;entryDy=0;" edge="1" parent="1" source="41" target="71">
                    <mxGeometry relative="1" as="geometry">
                        <Array as="points">
                            <mxPoint x="760" y="240"/>
                            <mxPoint x="760" y="480"/>
                            <mxPoint x="556" y="480"/>
                        </Array>
                    </mxGeometry>
                </mxCell>
                <mxCell id="41" value="PUT /api/v1/songs/:guid/upload" style="rounded=0;whiteSpace=wrap;html=1;" vertex="1" parent="1">
                    <mxGeometry x="464" y="220" width="200" height="40" as="geometry"/>
                </mxCell>
                <mxCell id="112" style="edgeStyle=none;html=1;entryX=0.5;entryY=0;entryDx=0;entryDy=0;fontSize=14;exitX=1;exitY=0.5;exitDx=0;exitDy=0;" edge="1" parent="1" source="61" target="71">
                    <mxGeometry relative="1" as="geometry">
                        <Array as="points">
                            <mxPoint x="760" y="420"/>
                            <mxPoint x="760" y="480"/>
                            <mxPoint x="556" y="480"/>
                        </Array>
                    </mxGeometry>
                </mxCell>
                <mxCell id="61" value="DELETE /api/v1/songs/:guid" style="rounded=0;whiteSpace=wrap;html=1;" vertex="1" parent="1">
                    <mxGeometry x="464" y="400" width="200" height="40" as="geometry"/>
                </mxCell>
                <mxCell id="79" style="edgeStyle=none;html=1;entryX=0.5;entryY=0;entryDx=0;entryDy=0;" edge="1" parent="1" source="69" target="103">
                    <mxGeometry relative="1" as="geometry"/>
                </mxCell>
                <mxCell id="69" value="upload topic" style="rounded=0;whiteSpace=wrap;html=1;" vertex="1" parent="1">
                    <mxGeometry x="415.5" y="590" width="120" height="60" as="geometry"/>
                </mxCell>
                <mxCell id="86" style="edgeStyle=none;html=1;entryX=0.5;entryY=0;entryDx=0;entryDy=0;" edge="1" parent="1" source="70" target="96">
                    <mxGeometry relative="1" as="geometry">
                        <mxPoint x="670" y="680" as="targetPoint"/>
                    </mxGeometry>
                </mxCell>
                <mxCell id="70" value="delete topic" style="rounded=0;whiteSpace=wrap;html=1;" vertex="1" parent="1">
                    <mxGeometry x="575.5" y="590" width="120" height="60" as="geometry"/>
                </mxCell>
                <mxCell id="72" style="edgeStyle=none;html=1;entryX=0.5;entryY=0;entryDx=0;entryDy=0;" edge="1" parent="1" source="71" target="69">
                    <mxGeometry relative="1" as="geometry"/>
                </mxCell>
                <mxCell id="74" style="edgeStyle=none;html=1;entryX=0.5;entryY=0;entryDx=0;entryDy=0;" edge="1" parent="1" source="71" target="70">
                    <mxGeometry relative="1" as="geometry"/>
                </mxCell>
                <mxCell id="71" value="SNS" style="rounded=0;whiteSpace=wrap;html=1;" vertex="1" parent="1">
                    <mxGeometry x="415.5" y="520" width="280" height="40" as="geometry"/>
                </mxCell>
                <mxCell id="87" value="&lt;h1&gt;&lt;font style=&quot;font-size: 14px ; font-weight: normal&quot;&gt;Lambda&lt;/font&gt;&lt;/h1&gt;" style="text;html=1;strokeColor=none;fillColor=none;spacing=5;spacingTop=-20;whiteSpace=wrap;overflow=hidden;rounded=0;" vertex="1" parent="1">
                    <mxGeometry x="756.5" y="775" width="64.5" height="40" as="geometry"/>
                </mxCell>
                <mxCell id="99" value="" style="group" vertex="1" connectable="0" parent="1">
                    <mxGeometry x="564" y="710" width="240" height="65" as="geometry"/>
                </mxCell>
                <mxCell id="100" value="" style="group" vertex="1" connectable="0" parent="99">
                    <mxGeometry width="240" height="65" as="geometry"/>
                </mxCell>
                <mxCell id="96" value="" style="rounded=0;whiteSpace=wrap;html=1;fontSize=14;" vertex="1" parent="100">
                    <mxGeometry width="240" height="65" as="geometry"/>
                </mxCell>
                <mxCell id="91" value="1" style="rounded=0;whiteSpace=wrap;html=1;" vertex="1" parent="100">
                    <mxGeometry x="16.5" y="17.5" width="60" height="30" as="geometry"/>
                </mxCell>
                <mxCell id="92" value="...." style="rounded=0;whiteSpace=wrap;html=1;" vertex="1" parent="100">
                    <mxGeometry x="90.5" y="17.5" width="60" height="30" as="geometry"/>
                </mxCell>
                <mxCell id="93" value="n" style="rounded=0;whiteSpace=wrap;html=1;" vertex="1" parent="100">
                    <mxGeometry x="166.5" y="17.5" width="60" height="30" as="geometry"/>
                </mxCell>
                <mxCell id="101" value="" style="group" vertex="1" connectable="0" parent="1">
                    <mxGeometry x="310" y="710" width="240" height="65" as="geometry"/>
                </mxCell>
                <mxCell id="102" value="" style="group" vertex="1" connectable="0" parent="101">
                    <mxGeometry width="240" height="65" as="geometry"/>
                </mxCell>
                <mxCell id="103" value="" style="rounded=0;whiteSpace=wrap;html=1;fontSize=14;" vertex="1" parent="102">
                    <mxGeometry width="240" height="65" as="geometry"/>
                </mxCell>
                <mxCell id="104" value="1" style="rounded=0;whiteSpace=wrap;html=1;" vertex="1" parent="102">
                    <mxGeometry x="16.5" y="17.5" width="60" height="30" as="geometry"/>
                </mxCell>
                <mxCell id="105" value="...." style="rounded=0;whiteSpace=wrap;html=1;" vertex="1" parent="102">
                    <mxGeometry x="90.5" y="17.5" width="60" height="30" as="geometry"/>
                </mxCell>
                <mxCell id="106" value="n" style="rounded=0;whiteSpace=wrap;html=1;" vertex="1" parent="102">
                    <mxGeometry x="166.5" y="17.5" width="60" height="30" as="geometry"/>
                </mxCell>
                <mxCell id="107" style="edgeStyle=none;html=1;entryX=0.5;entryY=0;entryDx=0;entryDy=0;entryPerimeter=0;fontSize=14;" edge="1" parent="1" source="103" target="11">
                    <mxGeometry relative="1" as="geometry">
                        <Array as="points">
                            <mxPoint x="430" y="840"/>
                            <mxPoint x="559" y="840"/>
                        </Array>
                    </mxGeometry>
                </mxCell>
                <mxCell id="108" style="edgeStyle=none;html=1;entryX=0.5;entryY=0;entryDx=0;entryDy=0;entryPerimeter=0;fontSize=14;" edge="1" parent="1" source="96" target="11">
                    <mxGeometry relative="1" as="geometry">
                        <Array as="points">
                            <mxPoint x="684" y="840"/>
                            <mxPoint x="559" y="840"/>
                        </Array>
                    </mxGeometry>
                </mxCell>
            </root>
        </mxGraphModel>
    </diagram>
</mxfile>